<svg width="377" height="378" viewBox="0 0 377 378" fill="none" xmlns="http://www.w3.org/2000/svg">
<path d="M356.262 20.7383C342.44 6.91363 325.788 0 306.318 0H70.688C51.2178 0 34.5656 6.91363 20.7383 20.7383C6.91363 34.5656 0 51.2169 0 70.688V306.315C0 325.785 6.91363 342.438 20.7383 356.265C34.5656 370.092 51.2178 377.006 70.688 377.006H306.315C325.786 377.006 342.438 370.092 356.259 356.265C370.086 342.438 377 325.786 377 306.315V70.688C376.999 51.2169 370.086 34.563 356.262 20.7383ZM288.399 145.06C288.563 146.532 288.646 148.738 288.646 151.688C288.646 165.434 286.64 179.22 282.633 193.043C278.626 206.872 272.488 220.126 264.222 232.807C255.963 245.486 246.104 256.698 234.652 266.433C223.196 276.165 209.453 283.941 193.414 289.746C177.383 295.559 160.198 298.466 141.873 298.466C113.404 298.466 87.0592 290.77 62.8408 275.395C66.7678 275.883 70.8608 276.13 75.1128 276.13C98.8404 276.13 120.194 268.767 139.176 254.036C128.051 253.877 118.109 250.443 109.355 243.727C100.599 237.019 94.5058 228.512 91.0688 218.202C95.3217 218.856 98.512 219.18 100.639 219.18C104.238 219.18 108.412 218.526 113.156 217.221C101.211 214.926 91.1496 209 82.9678 199.427C74.7844 189.854 70.694 178.932 70.694 166.661V166.17C79.364 170.258 87.5458 172.385 95.2374 172.551C80.3466 162.567 72.9017 148.252 72.9017 129.598C72.9017 120.434 75.2727 111.762 80.0182 103.581C92.9438 119.454 108.655 132.134 127.143 141.624C145.632 151.113 165.434 156.434 186.541 157.578C185.724 154.469 185.314 150.54 185.314 145.797C185.314 131.558 190.346 119.411 200.41 109.347C210.471 99.283 222.622 94.2496 236.856 94.2496C251.913 94.2496 264.434 99.651 274.414 110.451C285.705 108.324 296.673 104.15 307.306 97.9342C303.216 110.53 295.603 120.104 284.481 126.65C295.114 125.174 305.01 122.394 314.172 118.304C307.301 128.776 298.707 137.693 288.399 145.06Z" fill="white"/>
<path d="M346.452 30.9492H33.5244V349.035H346.452V30.9492Z" fill="white"/>
<path d="M206.321 153.025H171.934V194.291H206.321V153.025Z" fill="white"/>
<path d="M204.602 235.555H170.215V294.014H204.602V235.555Z" fill="white"/>
<path d="M295.939 197.987C288.545 188.425 277.386 181.857 262.464 178.287C281.466 168.595 289.817 152.143 287.524 128.931C286.758 120.514 284.432 113.219 280.54 107.036C276.646 100.851 271.391 95.8792 264.756 92.1178C258.126 88.3517 250.914 85.4848 243.139 83.5083C235.362 81.5318 226.433 80.0967 216.358 79.2049V31H186.902V77.8656C181.802 77.8656 174.023 77.9929 163.567 78.2482V31H134.107V79.2049C129.898 79.3329 123.713 79.3979 115.552 79.3979L75 79.2049V110.577H96.2315C105.924 110.577 111.599 114.914 113.256 123.584V178.485C114.533 178.485 115.552 178.551 116.318 178.678H113.256V255.573C112.237 262.075 108.539 265.329 102.162 265.329H80.9322L75.0013 300.336H113.26C115.683 300.336 119.188 300.368 123.78 300.426C128.371 300.49 131.812 300.522 134.108 300.522V349.3H163.573V301.096C168.928 301.227 176.706 301.289 186.908 301.289V349.3H216.365V300.522C226.824 300.013 236.101 299.062 244.195 297.654C252.293 296.246 260.042 294.05 267.437 291.051C274.831 288.056 281.015 284.324 285.988 279.86C290.963 275.401 295.073 269.723 298.33 262.836C301.577 255.948 303.652 247.978 304.542 238.921C306.207 221.2 303.336 207.554 295.939 197.987ZM164.14 112.675C165.033 112.675 167.551 112.643 171.696 112.579C175.843 112.513 179.284 112.45 182.026 112.386C184.768 112.323 188.467 112.482 193.123 112.865C197.778 113.247 201.698 113.759 204.886 114.395C208.073 115.032 211.583 116.084 215.405 117.551C219.234 119.016 222.293 120.802 224.586 122.906C226.883 125.01 228.827 127.689 230.418 130.941C232.014 134.193 232.812 137.923 232.812 142.13C232.812 145.701 232.239 148.954 231.093 151.889C229.948 154.821 228.222 157.277 225.93 159.253C223.636 161.231 221.272 162.954 218.849 164.419C216.428 165.884 213.333 167.065 209.572 167.957C205.812 168.85 202.529 169.551 199.725 170.061C196.919 170.571 193.413 170.923 189.204 171.113C184.994 171.303 181.805 171.433 179.638 171.496C177.469 171.559 174.505 171.559 170.742 171.496C166.978 171.433 164.781 171.4 164.142 171.4V112.675H164.14V112.675ZM244.58 242.941C243.365 245.875 241.805 248.427 239.894 250.597C237.979 252.761 235.459 254.676 232.336 256.331C229.214 257.992 226.182 259.328 223.252 260.349C220.317 261.373 216.777 262.261 212.636 263.029C208.486 263.794 204.854 264.333 201.727 264.654C198.604 264.974 194.875 265.228 190.538 265.421C186.203 265.608 182.822 265.705 180.4 265.705C177.977 265.705 174.915 265.67 171.217 265.608C167.517 265.548 165.159 265.516 164.138 265.516V200.858C165.157 200.858 168.187 200.796 173.225 200.666C178.264 200.537 182.374 200.478 185.563 200.478C188.751 200.478 193.152 200.666 198.765 201.051C204.373 201.431 209.092 202.003 212.921 202.768C216.745 203.534 220.919 204.712 225.449 206.308C229.975 207.901 233.643 209.846 236.45 212.141C239.256 214.44 241.613 217.369 243.526 220.941C245.442 224.511 246.399 228.592 246.399 233.184C246.398 236.759 245.793 240.006 244.58 242.941Z" fill="black"/>
</svg>
