<svg width="390" height="390" viewBox="0 0 390 390" fill="none" xmlns="http://www.w3.org/2000/svg">
<path d="M219.852 141.824C215.859 137.83 210.329 135.373 204.185 135.373H170.905V179.814H204.185C223.723 179.814 233.953 156.283 219.852 141.824Z" fill="white"/>
<path d="M170.905 201.318V253.85H210.227C233.779 253.85 245.33 225.208 228.761 208.998C218.521 198.758 209.469 201.318 170.905 201.318Z" fill="white"/>
<path d="M389.837 194.97C389.837 87.2448 302.592 0 194.97 0C87.3472 0 0 87.2448 0 194.97C0 302.592 87.3472 389.837 194.97 389.837C302.592 389.837 389.837 302.592 389.837 194.97V194.97ZM268.902 264.09C260.198 272.896 248.013 278.323 234.598 278.323H208.384V310.784H186.061V278.323H169.984V310.784H147.661V278.323H106.701V256.102H131.584V133.837H106.701V111.514H147.661V79.0528H169.984V111.514H186.061V79.0528H208.384V111.514H234.189C253.44 111.514 269.005 127.078 269.005 146.33C269.005 155.955 265.114 164.659 258.867 171.008C252.621 177.152 244.019 181.043 234.598 181.146C261.427 181.146 283.136 202.957 283.136 229.786C283.136 243.2 277.709 255.386 268.902 264.09V264.09Z" fill="white"/>
</svg>
