<svg width="512" height="512" viewBox="0 0 512 512" fill="none" xmlns="http://www.w3.org/2000/svg">
<path d="M138.667 362.667H64V501.333H181.333V328.747C153.067 357.013 150.293 362.667 138.667 362.667Z" fill="white"/>
<path d="M309.333 458.667H352V501.333H309.333V458.667Z" fill="white"/>
<path d="M230.293 356.373L202.667 328.747V501.333H288V448C288 445.171 289.124 442.458 291.124 440.457C293.124 438.457 295.838 437.333 298.667 437.333H362.667C365.495 437.333 368.209 438.457 370.209 440.457C372.209 442.458 373.333 445.171 373.333 448V501.333H448V362.667C230.08 362.667 238.933 365.227 230.293 356.373Z" fill="white"/>
<path d="M266.666 85.333H245.333V106.666H266.666C269.495 106.666 272.208 105.543 274.209 103.542C276.209 101.542 277.333 98.8287 277.333 95.9997C277.333 93.1707 276.209 90.4576 274.209 88.4572C272.208 86.4568 269.495 85.333 266.666 85.333Z" fill="white"/>
<path d="M277.333 128H245.333V149.333H277.333C280.162 149.333 282.875 148.21 284.875 146.209C286.876 144.209 288 141.496 288 138.667C288 135.838 286.876 133.125 284.875 131.124C282.875 129.124 280.162 128 277.333 128Z" fill="white"/>
<path d="M256 224C277.096 224 297.719 217.744 315.261 206.023C332.802 194.303 346.473 177.644 354.547 158.153C362.62 138.662 364.733 117.215 360.617 96.5236C356.501 75.8323 346.342 56.8261 331.424 41.9085C316.507 26.9909 297.501 16.8319 276.809 12.7161C256.118 8.60037 234.671 10.7127 215.18 18.7861C195.689 26.8594 179.03 40.5312 167.31 58.0724C155.589 75.6136 149.333 96.2366 149.333 117.333C149.333 145.623 160.571 172.754 180.575 192.758C200.579 212.762 227.71 224 256 224V224ZM213.333 85.3332C210.504 85.3332 207.791 84.2094 205.791 82.209C203.79 80.2086 202.666 77.4955 202.666 74.6666C202.666 71.8376 203.79 69.1245 205.791 67.1241C207.791 65.1237 210.504 63.9999 213.333 63.9999H224V53.3332C224 50.5042 225.123 47.7911 227.124 45.7907C229.124 43.7904 231.837 42.6666 234.666 42.6666C237.495 42.6666 240.208 43.7904 242.209 45.7907C244.209 47.7911 245.333 50.5042 245.333 53.3332V63.9999H256V53.3332C256 50.5042 257.123 47.7911 259.124 45.7907C261.124 43.7904 263.837 42.6666 266.666 42.6666C269.495 42.6666 272.208 43.7904 274.209 45.7907C276.209 47.7911 277.333 50.5042 277.333 53.3332V65.9199C281.715 67.4837 285.704 69.9844 289.021 73.2478C292.338 76.5111 294.903 80.4585 296.538 84.8149C298.173 89.1713 298.838 93.8318 298.487 98.4716C298.136 103.111 296.778 107.619 294.506 111.68C300.344 115.4 304.819 120.913 307.258 127.392C309.697 133.87 309.969 140.965 308.034 147.612C306.099 154.258 302.061 160.098 296.525 164.255C290.99 168.412 284.256 170.662 277.333 170.667V181.333C277.333 184.162 276.209 186.875 274.209 188.876C272.208 190.876 269.495 192 266.666 192C263.837 192 261.124 190.876 259.124 188.876C257.123 186.875 256 184.162 256 181.333V170.667H245.333V181.333C245.333 184.162 244.209 186.875 242.209 188.876C240.208 190.876 237.495 192 234.666 192C231.837 192 229.124 190.876 227.124 188.876C225.123 186.875 224 184.162 224 181.333V170.667H213.333C210.504 170.667 207.791 169.543 205.791 167.542C203.79 165.542 202.666 162.829 202.666 160C202.666 157.171 203.79 154.458 205.791 152.457C207.791 150.457 210.504 149.333 213.333 149.333H224V85.3332H213.333Z" fill="white"/>
<path d="M10.6665 341.333H138.667L181.333 298.667V288H63.9998L10.6665 341.333Z" fill="white"/>
<path d="M202.667 288V298.667L245.333 341.333H501.333L448 288H202.667Z" fill="white"/>
<path d="M63.9996 237.227C88.9776 237.227 109.226 216.978 109.226 192C109.226 167.022 88.9776 146.773 63.9996 146.773C39.0216 146.773 18.7729 167.022 18.7729 192C18.7729 216.978 39.0216 237.227 63.9996 237.227Z" fill="white"/>
<path d="M448 109.227C472.978 109.227 493.227 88.9781 493.227 64.0001C493.227 39.0221 472.978 18.7734 448 18.7734C423.022 18.7734 402.773 39.0221 402.773 64.0001C402.773 88.9781 423.022 109.227 448 109.227Z" fill="white"/>
<path d="M448 237.227C472.978 237.227 493.227 216.978 493.227 192C493.227 167.022 472.978 146.773 448 146.773C423.022 146.773 402.773 167.022 402.773 192C402.773 216.978 423.022 237.227 448 237.227Z" fill="white"/>
</svg>
