<svg width="512" height="512" viewBox="0 0 512 512" fill="none" xmlns="http://www.w3.org/2000/svg">
<path d="M256 6C117.929 6 6 117.929 6 256C6 394.071 117.929 506 256 506C394.071 506 506 394.071 506 256C506 117.929 394.071 6 256 6ZM284.908 383.77V410.058H228.864V383.924C183.17 375.591 154.864 345.531 154.864 300.024H226.58C226.58 317.001 240.455 325.48 255.98 325.48C270.539 325.48 284.413 318.07 284.413 305.128C284.413 289.412 264.946 284.856 241.08 278.957C204.638 269.901 158.238 258.65 158.238 201.457C158.238 160.732 183.48 134.308 226.344 126.643V101.943H282.388V126.9C324.988 135.21 349.003 163.283 349.003 205.07L279.366 205.227C279.366 190.501 267.582 183.308 253.183 183.308C240.673 183.308 228.729 188.457 228.729 199.308C228.729 213.686 247.606 218.399 271.513 224.46C308.649 234.048 357.142 246.21 357.142 303.743C357.139 348.662 328.132 375.76 284.908 383.77V383.77Z" fill="white"/>
</svg>
