<svg width="377" height="378" viewBox="0 0 377 378" fill="none" xmlns="http://www.w3.org/2000/svg">
<path d="M356.262 20.7383C342.44 6.91363 325.788 0 306.318 0H70.688C51.2178 0 34.5656 6.91363 20.7383 20.7383C6.91363 34.5656 0 51.2169 0 70.688V306.315C0 325.785 6.91363 342.438 20.7383 356.265C34.5656 370.092 51.2178 377.006 70.688 377.006H306.315C325.786 377.006 342.438 370.092 356.259 356.265C370.086 342.438 377 325.786 377 306.315V70.688C376.999 51.2169 370.086 34.563 356.262 20.7383ZM288.399 145.06C288.563 146.532 288.646 148.738 288.646 151.688C288.646 165.434 286.64 179.22 282.633 193.043C278.626 206.872 272.488 220.126 264.222 232.807C255.963 245.486 246.104 256.698 234.652 266.433C223.196 276.165 209.453 283.941 193.414 289.746C177.383 295.559 160.198 298.466 141.873 298.466C113.404 298.466 87.0592 290.77 62.8408 275.395C66.7678 275.883 70.8608 276.13 75.1128 276.13C98.8404 276.13 120.194 268.767 139.176 254.036C128.051 253.877 118.109 250.443 109.355 243.727C100.599 237.019 94.5058 228.512 91.0688 218.202C95.3217 218.856 98.512 219.18 100.639 219.18C104.238 219.18 108.412 218.526 113.156 217.221C101.211 214.926 91.1496 209 82.9678 199.427C74.7844 189.854 70.694 178.932 70.694 166.661V166.17C79.364 170.258 87.5458 172.385 95.2374 172.551C80.3466 162.567 72.9017 148.252 72.9017 129.598C72.9017 120.434 75.2727 111.762 80.0182 103.581C92.9438 119.454 108.655 132.134 127.143 141.624C145.632 151.113 165.434 156.434 186.541 157.578C185.724 154.469 185.314 150.54 185.314 145.797C185.314 131.558 190.346 119.411 200.41 109.347C210.471 99.283 222.622 94.2496 236.856 94.2496C251.913 94.2496 264.434 99.651 274.414 110.451C285.705 108.324 296.673 104.15 307.306 97.9342C303.216 110.53 295.603 120.104 284.481 126.65C295.114 125.174 305.01 122.394 314.172 118.304C307.301 128.776 298.707 137.693 288.399 145.06Z" fill="white"/>
<path d="M346.452 30.9492H33.5244V349.035H346.452V30.9492Z" fill="white"/>
<path d="M206.321 153.025H171.934V194.291H206.321V153.025Z" fill="white"/>
<path d="M204.602 235.555H170.215V294.014H204.602V235.555Z" fill="white"/>
<path d="M196.552 168.944C155.765 158.343 142.649 147.473 142.649 130.403C142.649 110.819 160.707 97.0736 191.162 97.0736C223.144 97.0736 235.002 112.346 236.08 134.806H275.789C274.621 103.811 255.666 75.6026 218.113 66.349V27H164.21V65.81C129.353 73.4465 101.323 95.9055 101.323 130.673C101.323 172.178 135.731 192.84 185.771 204.879C230.78 215.66 239.674 231.382 239.674 248.271C239.674 260.579 230.96 280.343 191.162 280.343C154.148 280.343 139.505 263.723 137.619 242.611H98C100.246 281.96 129.623 303.97 164.21 311.427V350.417H218.113V311.786C253.06 305.048 281 284.835 281 247.911C281 197.063 237.339 179.635 196.552 168.944Z" fill="black"/>
</svg>
