<svg width="494" height="494" viewBox="0 0 494 494" fill="none" xmlns="http://www.w3.org/2000/svg">
<g clip-path="url(#clip0_1593_49)">
<path d="M246.613 0C110.295 0.118 -0.117906 110.721 9.44931e-05 247.04C0.118094 383.359 110.721 493.771 247.04 493.653C383.275 493.535 493.653 383.062 493.653 246.827C493.418 110.522 382.918 0.117 246.613 0ZM347.947 222.293L347.734 222.506L251.734 396.159C249.979 399.472 246.523 401.529 242.774 401.492H239.787C235.283 400.05 232.308 395.763 232.534 391.039L237.441 287.572H154.241C150.68 287.533 147.384 285.684 145.494 282.665C143.62 279.509 143.62 275.581 145.494 272.425L241.494 97.492C243.802 93.216 248.752 91.095 253.441 92.372C257.9 93.875 260.847 98.122 260.694 102.825L256 206.293H339.2C342.886 206.287 346.264 208.347 347.947 211.626C350.163 214.837 350.163 219.083 347.947 222.293Z" fill="white"/>
</g>
<defs>
<clipPath id="clip0_1593_49">
<rect width="493.653" height="493.653" fill="white"/>
</clipPath>
</defs>
</svg>
