<svg width="512" height="512" viewBox="0 0 512 512" fill="none" xmlns="http://www.w3.org/2000/svg">
<path fill-rule="evenodd" clip-rule="evenodd" d="M256 10C391.862 10 502 120.138 502 256C502 391.862 391.862 502 256 502C120.138 502 10 391.862 10 256C10 120.138 120.138 10 256 10ZM215.412 216.458C214.105 212.853 214.182 208.96 215.458 205.469C216.702 202.064 219.094 199.066 222.457 197.125L222.493 197.104L222.505 197.125L338.219 130.317C338.379 130.225 338.534 130.129 338.688 130.03C342.387 128.072 346.559 127.716 350.377 128.739C354.344 129.802 357.905 132.377 360.118 136.21L385.156 179.577C385.248 179.736 385.344 179.892 385.442 180.046C387.4 183.745 387.757 187.917 386.734 191.736C385.671 195.703 383.096 199.263 379.263 201.477C379.043 201.604 378.83 201.738 378.621 201.876L263.56 268.307L263.548 268.285C260.187 270.226 256.384 270.795 252.796 270.168C249.115 269.524 245.71 267.661 243.271 264.762C238.848 259.503 231 258.826 225.742 263.248C220.484 267.671 219.806 275.519 224.228 280.777C230.589 288.338 239.258 293.16 248.499 294.776C257.623 296.372 267.358 294.884 276.048 289.866L276.036 289.845L391.067 223.432C391.301 223.315 391.534 223.191 391.764 223.058C401.564 217.4 408.143 208.307 410.856 198.181C413.487 188.36 412.462 177.541 407.189 167.928C407.051 167.641 406.901 167.357 406.738 167.077L381.7 123.71C376.042 113.91 366.948 107.331 356.822 104.618C347 101.986 336.181 103.012 326.568 108.285C326.281 108.423 325.997 108.573 325.717 108.735L210.003 175.543L210.015 175.564C201.346 180.58 195.199 188.268 192.018 196.973C188.791 205.802 188.621 215.709 191.971 224.954C194.317 231.426 201.466 234.771 207.938 232.425C214.413 230.079 217.758 222.93 215.412 216.458V216.458ZM296.588 295.541C297.895 299.147 297.818 303.038 296.542 306.53C295.306 309.913 292.899 312.909 289.494 314.875C289.274 315.002 289.06 315.136 288.851 315.274L173.769 381.716C169.959 383.894 165.598 384.326 161.621 383.261C157.654 382.198 154.093 379.623 151.88 375.789L126.842 332.422C126.75 332.263 126.654 332.107 126.556 331.953C124.598 328.254 124.242 324.082 125.265 320.263C126.328 316.296 128.903 312.735 132.736 310.521C132.956 310.394 133.169 310.26 133.379 310.122L248.402 243.714C251.771 241.769 255.591 241.2 259.204 241.832C262.885 242.476 266.29 244.339 268.728 247.238C273.151 252.496 280.999 253.174 286.257 248.752C291.516 244.329 292.193 236.481 287.771 231.223C281.41 223.662 272.741 218.84 263.5 217.224C254.399 215.632 244.682 217.12 235.999 222.133L120.932 288.567C120.698 288.684 120.465 288.808 120.236 288.941C110.436 294.599 103.857 303.692 101.144 313.819C98.512 323.64 99.538 334.459 104.811 344.073C104.949 344.36 105.099 344.644 105.262 344.924L130.3 388.291C135.958 398.091 145.051 404.67 155.177 407.383C165.271 410.087 176.419 408.93 186.229 403.267L301.3 336.831C301.534 336.714 301.767 336.59 301.996 336.457C310.643 331.465 316.787 323.766 319.981 315.027C323.208 306.197 323.378 296.291 320.027 287.046C317.681 280.574 310.532 277.229 304.06 279.575C297.587 281.92 294.242 289.069 296.588 295.541V295.541Z" fill="white"/>
</svg>
