<svg width="512" height="512" viewBox="0 0 512 512" fill="none" xmlns="http://www.w3.org/2000/svg">
<g clip-path="url(#clip0_1605_104)">
<path d="M387.636 267.57C415.016 248.532 431.545 217.388 431.545 183.406C431.545 126.851 385.534 80.8389 328.978 80.8389C295.206 80.8389 264.058 97.3089 244.986 124.53C313.304 145.108 367.24 199.175 387.636 267.57V267.57Z" fill="white"/>
<path d="M213.87 117.672C237.481 76.358 281.202 50.865 328.979 50.865C402.062 50.865 461.52 110.323 461.52 183.406C461.52 231.46 435.943 275.116 394.406 298.684C395.757 308.355 396.472 318.227 396.472 328.264C396.472 337.318 395.9 346.241 394.796 355.001C463.317 328.29 512 261.594 512 183.736C512 82.424 429.576 0 328.264 0C250.405 0 183.71 48.683 156.999 117.204C165.759 116.101 174.682 115.528 183.736 115.528C193.965 115.528 204.022 116.27 213.87 117.672V117.672Z" fill="white"/>
<path d="M482.026 393.817C482.026 424.52 457.048 449.498 426.345 449.498H424.849L435.74 438.606L414.545 417.411L367.471 464.484L414.545 511.557L435.74 490.362L424.849 479.471H426.345C473.575 479.471 512 441.047 512 393.816V359.547H482.026V393.817Z" fill="white"/>
<path d="M151 277.307C151 283.542 152.764 288.74 156.462 292.305C160.301 296.012 167.527 299.577 178 303V254C169.588 254.597 162.955 257.267 158.085 261.57C153.357 265.732 151 270.916 151 277.307V277.307Z" fill="white"/>
<path d="M195 343V394C204.704 392.962 212.222 390.43 217.853 385.965C223.185 381.798 226 376.151 226 369.453C226 363.053 223.963 357.706 219.426 353.837C215.202 349.841 207.056 346.271 195 343V343Z" fill="white"/>
<path d="M184 144C82.3781 144 0 226.378 0 328C0 429.622 82.3781 512 184 512C285.622 512 368 429.622 368 328C368 226.378 285.622 144 184 144ZM242.715 408.254C230.798 418.689 215.446 424.348 195.917 425.388V445.801H177.885V424.932C151.955 422.552 128.407 411.96 107.837 394.085L128.706 369.339C144.5 383.194 160.893 391.391 177.885 394.085V338.948C156.417 333.73 140.78 327.031 130.645 318.834C120.809 310.481 116.033 297.965 116.033 281.729C116.033 265.336 121.55 251.923 132.868 241.488C144.5 231.21 159.553 225.394 177.885 224.496V210.185H195.917V224.639C216.786 226.278 236.457 233.434 254.932 246.107L236.6 272.335C224.084 263.398 210.514 257.724 195.917 255.786V309.141H196.815C218.568 314.358 234.676 321.215 244.953 330.01C254.946 338.648 260.149 351.178 260.149 367.714C260.149 384.249 254.347 397.976 242.715 408.254V408.254Z" fill="white"/>
</g>
<defs>
<clipPath id="clip0_1605_104">
<rect width="512" height="512" fill="white"/>
</clipPath>
</defs>
</svg>
