<svg width="512" height="512" viewBox="0 0 512 512" fill="none" xmlns="http://www.w3.org/2000/svg">
<g clip-path="url(#clip0_1605_70)">
<path d="M387.636 267.57C415.016 248.532 431.545 217.388 431.545 183.406C431.545 126.851 385.534 80.8389 328.978 80.8389C295.206 80.8389 264.058 97.3089 244.986 124.53C313.304 145.108 367.24 199.175 387.636 267.57V267.57Z" fill="white"/>
<path d="M213.87 117.672C237.481 76.358 281.202 50.865 328.979 50.865C402.062 50.865 461.52 110.323 461.52 183.406C461.52 231.46 435.943 275.116 394.406 298.684C395.757 308.355 396.472 318.227 396.472 328.264C396.472 337.318 395.9 346.241 394.796 355.001C463.317 328.29 512 261.594 512 183.736C512 82.424 429.576 0 328.264 0C250.405 0 183.71 48.683 156.999 117.204C165.759 116.101 174.682 115.528 183.736 115.528C193.965 115.528 204.022 116.27 213.87 117.672V117.672Z" fill="white"/>
<path d="M482.026 393.817C482.026 424.52 457.048 449.498 426.345 449.498H424.849L435.74 438.606L414.545 417.411L367.471 464.484L414.545 511.557L435.74 490.362L424.849 479.471H426.345C473.575 479.471 512 441.047 512 393.816V359.547H482.026V393.817Z" fill="white"/>
<path d="M163.695 313.277H216.686C223.342 313.277 228.758 307.862 228.758 301.205C228.758 294.548 223.342 289.132 216.686 289.132H163.695V313.277Z" fill="white"/>
<path d="M216.686 343.251H163.695V367.395H216.686C223.342 367.395 228.758 361.979 228.758 355.323C228.758 348.667 223.342 343.251 216.686 343.251V343.251Z" fill="white"/>
<path d="M367.472 328.264C367.472 226.952 285.048 144.528 183.736 144.528C82.424 144.528 0 226.952 0 328.264C0 429.576 82.424 512 183.736 512C285.048 512 367.472 429.576 367.472 328.264ZM219.65 397.253V421.321H189.676V397.37H163.695V421.322H133.72V397.37H108.74V367.396H133.721V289.133H108.74V259.159H133.721V235.207H163.695V259.159H189.676V235.207H219.65V259.275C241.455 260.803 258.732 279.018 258.732 301.205C258.732 311.505 255.004 320.946 248.834 328.264C255.004 335.583 258.732 345.024 258.732 355.323C258.732 377.51 241.455 395.726 219.65 397.253V397.253Z" fill="white"/>
</g>
<defs>
<clipPath id="clip0_1605_70">
<rect width="512" height="512" fill="white"/>
</clipPath>
</defs>
</svg>
