<svg width="512" height="512" viewBox="0 0 512 512" fill="none" xmlns="http://www.w3.org/2000/svg">
<g clip-path="url(#clip0_1565_37)">
<path d="M292 208H260V224H292C294.122 224 296.157 223.157 297.657 221.657C299.157 220.157 300 218.122 300 216C300 213.878 299.157 211.843 297.657 210.343C296.157 208.843 294.122 208 292 208Z" fill="white"/>
<path d="M292 184C292 181.878 291.157 179.843 289.657 178.343C288.157 176.843 286.122 176 284 176H260V192H284C286.122 192 288.157 191.157 289.657 189.657C291.157 188.157 292 186.122 292 184Z" fill="white"/>
<path d="M144 392.488H128V312C128 309.878 127.157 307.843 125.657 306.343C124.157 304.843 122.122 304 120 304H104C101.878 304 99.8434 304.843 98.3432 306.343C96.8429 307.843 96 309.878 96 312V392.488H80C78.5143 392.488 77.058 392.902 75.7942 393.683C74.5303 394.464 73.509 395.581 72.8446 396.91C72.1802 398.239 71.8989 399.727 72.0323 401.206C72.1658 402.686 72.7086 404.099 73.6 405.288L105.6 447.952C106.345 448.946 107.311 449.752 108.422 450.307C109.533 450.863 110.758 451.152 112 451.152C113.242 451.152 114.467 450.863 115.578 450.307C116.689 449.752 117.655 448.946 118.4 447.952L150.4 405.288C151.291 404.099 151.834 402.686 151.968 401.206C152.101 399.727 151.82 398.239 151.155 396.91C150.491 395.581 149.47 394.464 148.206 393.683C146.942 392.902 145.486 392.488 144 392.488V392.488Z" fill="white"/>
<path d="M88 56C88.0169 70.8469 93.9224 85.0809 104.421 95.5793C114.919 106.078 129.153 111.983 144 112H400C414.847 111.983 429.081 106.078 439.579 95.5793C450.078 85.0809 455.983 70.8469 456 56V48H88V56Z" fill="white"/>
<path d="M448 0H96C93.8783 0 91.8434 0.842855 90.3431 2.34315C88.8429 3.84344 88 5.87827 88 8V32H456V8C456 5.87827 455.157 3.84344 453.657 2.34315C452.157 0.842855 450.122 0 448 0V0Z" fill="white"/>
<path d="M288 448C285.327 447.992 282.656 447.835 280 447.528V504C280 506.122 280.843 508.156 282.343 509.657C283.843 511.157 285.878 512 288 512H448C450.122 512 452.157 511.157 453.657 509.657C455.157 508.156 456 506.122 456 504V431.112C450.8 436.458 444.581 440.707 437.711 443.607C430.84 446.508 423.458 448.002 416 448H288Z" fill="white"/>
<path d="M368.8 246.88C364.261 242.584 358.225 240.229 351.976 240.314C345.727 240.4 339.757 242.919 335.337 247.337C330.917 251.756 328.395 257.724 328.306 263.973C328.218 270.222 330.571 276.259 334.864 280.8L382.168 328.112C373.891 333.757 367.117 341.339 362.437 350.198C357.757 359.057 355.311 368.925 355.312 378.944V384C355.312 386.122 354.469 388.157 352.969 389.657C351.469 391.157 349.434 392 347.312 392C345.19 392 343.155 391.157 341.655 389.657C340.155 388.157 339.312 386.122 339.312 384V378.952C339.305 359.97 346.265 341.647 358.872 327.456L351.416 320C334.052 331.579 314.362 339.212 293.73 342.362C273.099 345.512 252.028 344.102 232 338.232V376C232.017 390.847 237.922 405.081 248.421 415.579C258.919 426.078 273.153 431.983 288 432H416C426.609 432 436.783 427.786 444.284 420.284C451.786 412.783 456 402.609 456 392V367.2C456.029 356.69 453.973 346.279 449.951 336.569C445.928 326.859 440.02 318.043 432.568 310.632L368.8 246.88Z" fill="white"/>
<path d="M415.792 194.4C415.864 196.256 416 198.104 416 200C415.988 220.266 411.669 240.298 403.328 258.768L443.88 299.328C448.397 303.842 452.457 308.791 456 314.104V258.904C456 245.468 452.232 232.302 445.125 220.899C438.017 209.497 427.855 200.317 415.792 194.4V194.4Z" fill="white"/>
<path d="M322.44 128H221.6C203.226 140.914 190.489 160.369 186.002 182.375C181.515 204.381 185.617 227.27 197.469 246.347C209.32 265.424 228.021 279.244 249.737 284.972C271.453 290.7 294.537 287.902 314.256 277.152C311.95 270.77 311.32 263.902 312.428 257.207C313.537 250.511 316.345 244.213 320.585 238.914C324.825 233.615 330.354 229.493 336.643 226.944C342.933 224.394 349.771 223.502 356.504 224.352C361.642 206.748 361.117 187.974 355.005 170.685C348.892 153.395 337.501 138.463 322.44 128ZM292 240V248C292 250.122 291.157 252.157 289.657 253.657C288.157 255.157 286.122 256 284 256C281.878 256 279.844 255.157 278.343 253.657C276.843 252.157 276 250.122 276 248V240H260V248C260 250.122 259.157 252.157 257.657 253.657C256.157 255.157 254.122 256 252 256C249.878 256 247.844 255.157 246.343 253.657C244.843 252.157 244 250.122 244 248V240H236C233.878 240 231.844 239.157 230.343 237.657C228.843 236.157 228 234.122 228 232C228 229.878 228.843 227.843 230.343 226.343C231.844 224.843 233.878 224 236 224H244V176H236C233.878 176 231.844 175.157 230.343 173.657C228.843 172.157 228 170.122 228 168C228 165.878 228.843 163.843 230.343 162.343C231.844 160.843 233.878 160 236 160H244V152C244 149.878 244.843 147.843 246.343 146.343C247.844 144.843 249.878 144 252 144C254.122 144 256.157 144.843 257.657 146.343C259.157 147.843 260 149.878 260 152V160H276V152C276 149.878 276.843 147.843 278.343 146.343C279.844 144.843 281.878 144 284 144C286.122 144 288.157 144.843 289.657 146.343C291.157 147.843 292 149.878 292 152V161.472C295.313 162.606 298.333 164.46 300.843 166.902C303.353 169.343 305.289 172.311 306.514 175.592C307.738 178.872 308.219 182.383 307.923 185.872C307.627 189.361 306.56 192.741 304.8 195.768C309.203 198.535 312.587 202.66 314.438 207.52C316.29 212.38 316.509 217.711 315.064 222.706C313.618 227.702 310.586 232.091 306.425 235.211C302.264 238.331 297.201 240.012 292 240V240Z" fill="white"/>
<path d="M339.824 308.416L323.552 292.144C323.144 291.736 322.872 291.264 322.496 290.848C300.742 302.987 275.349 306.903 250.948 301.884C226.547 296.864 204.762 283.243 189.566 263.503C174.369 243.763 166.772 219.219 168.16 194.346C169.548 169.473 179.829 145.926 197.128 128H166.184C149.62 152.271 141.918 181.506 144.375 210.788C146.831 240.07 159.296 267.613 179.673 288.785C200.05 309.957 227.096 323.467 256.262 327.042C285.429 330.617 314.937 324.04 339.824 308.416V308.416Z" fill="white"/>
<path d="M380.12 235.568L391.128 246.576C398.752 227.225 401.525 206.303 399.205 185.634C396.884 164.965 389.541 145.178 377.816 128H346.872C359.633 141.167 368.661 157.492 373.027 175.301C377.394 193.11 376.943 211.759 371.72 229.336C374.785 231.03 377.61 233.126 380.12 235.568V235.568Z" fill="white"/>
</g>
<defs>
<clipPath id="clip0_1565_37">
<rect width="512" height="512" fill="white"/>
</clipPath>
</defs>
</svg>
