<svg width="512" height="512" viewBox="0 0 512 512" fill="none" xmlns="http://www.w3.org/2000/svg">
<path d="M341.334 471.893C352.49 471.97 363.416 468.711 372.709 462.537C382.001 456.362 389.238 447.552 393.49 437.237C397.742 426.922 398.816 415.572 396.574 404.642C394.332 393.712 388.877 383.701 380.907 375.893L260.373 256L380.907 135.573C390.799 124.958 396.184 110.917 395.928 96.409C395.672 81.9011 389.795 68.0591 379.535 57.7989C369.274 47.5387 355.432 41.6615 340.925 41.4056C326.417 41.1496 312.376 46.5348 301.76 56.4266L109.76 248.427C108.76 249.418 107.967 250.598 107.425 251.898C106.884 253.198 106.605 254.592 106.605 256C106.605 257.408 106.884 258.802 107.425 260.102C107.967 261.402 108.76 262.582 109.76 263.573L301.76 455.573C312.276 466.029 326.504 471.897 341.334 471.893Z" fill="white"/>
</svg>
