<svg width="683" height="683" viewBox="0 0 683 683" fill="none" xmlns="http://www.w3.org/2000/svg">
<g clip-path="url(#clip0_96_96)">
<path d="M263.109 0H49.776C22.3281 0 0 22.3281 0 49.776V177.776C0 205.229 22.3281 227.557 49.776 227.557H263.109C290.563 227.557 312.891 205.229 312.891 177.776V49.776C312.891 22.3281 290.563 0 263.109 0Z" fill="white"/>
<path d="M263.109 284.443H49.776C22.3281 284.443 0 306.771 0 334.224V632.891C0 660.339 22.3281 682.667 49.776 682.667H263.109C290.563 682.667 312.891 660.339 312.891 632.891V334.224C312.891 306.771 290.563 284.443 263.109 284.443V284.443Z" fill="white"/>
<path d="M632.891 455.109H419.558C392.104 455.109 369.776 477.438 369.776 504.891V632.891C369.776 660.339 392.104 682.667 419.558 682.667H632.891C660.339 682.667 682.667 660.339 682.667 632.891V504.891C682.667 477.438 660.339 455.109 632.891 455.109V455.109Z" fill="white"/>
<path d="M632.891 0H419.558C392.104 0 369.776 22.3281 369.776 49.776V348.443C369.776 375.896 392.104 398.224 419.558 398.224H632.891C660.339 398.224 682.667 375.896 682.667 348.443V49.776C682.667 22.3281 660.339 0 632.891 0V0Z" fill="white"/>
</g>
<defs>
<clipPath id="clip0_96_96">
<rect width="682.667" height="682.667" fill="white"/>
</clipPath>
</defs>
</svg>
