<svg width="54" height="54" viewBox="0 0 54 54" fill="none" xmlns="http://www.w3.org/2000/svg">
<path d="M26.62 0C11.919 0 0 11.918 0 26.62C0 41.322 11.919 53.24 26.62 53.24C41.32 53.24 53.24 41.322 53.24 26.62C53.24 11.918 41.32 0 26.62 0ZM48.048 27.178H45.921V33.699C45.921 34.403 45.35 34.974 44.647 34.974C43.942 34.974 43.371 34.403 43.371 33.699V27.178H42.52V31.998C42.52 32.702 41.948 33.273 41.243 33.273C40.54 33.273 39.969 32.702 39.969 31.998V27.178H39.118V33.699C39.118 34.403 38.547 34.974 37.842 34.974C37.138 34.974 36.568 34.403 36.568 33.699V27.178H22.812V33.276C22.812 34.214 22.05 34.977 21.111 34.977H10.762C9.822 34.977 9.061 34.214 9.061 33.276V18.528C9.061 17.589 9.822 16.827 10.762 16.827H21.111C22.05 16.827 22.812 17.589 22.812 18.528V24.625H48.048C48.752 24.625 49.324 25.197 49.324 25.901C49.324 26.605 48.753 27.178 48.048 27.178Z" fill="white"/>
<path d="M18.2757 21.9319H13.5957V29.8709H18.2757V21.9319Z" fill="white"/>
</svg>
