<svg width="512" height="512" viewBox="0 0 512 512" fill="none" xmlns="http://www.w3.org/2000/svg">
<path d="M256 496C303.468 496 349.869 481.924 389.337 455.553C428.805 429.181 459.566 391.698 477.731 347.844C495.896 303.99 500.649 255.734 491.388 209.178C482.128 162.623 459.27 119.859 425.706 86.2945C392.141 52.7299 349.377 29.8721 302.822 20.6116C256.266 11.3512 208.01 16.104 164.156 34.269C120.302 52.4341 82.8188 83.1955 56.4473 122.663C30.0758 162.131 16 208.533 16 256C16.072 319.63 41.3808 380.633 86.3739 425.626C131.367 470.619 192.37 495.928 256 496V496ZM256 48.0001C297.139 48.0001 337.353 60.1991 371.559 83.0544C405.764 105.91 432.424 138.395 448.167 176.402C463.91 214.409 468.029 256.231 460.003 296.579C451.978 336.927 432.168 373.989 403.078 403.078C373.989 432.168 336.927 451.978 296.579 460.003C256.231 468.029 214.409 463.91 176.402 448.167C138.395 432.424 105.91 405.764 83.0543 371.559C60.199 337.353 48 297.139 48 256C48.0635 200.855 69.9981 147.986 108.992 108.992C147.986 69.9982 200.854 48.0636 256 48.0001V48.0001Z" fill="white"/>
<path d="M256 400C264.837 400 272 392.837 272 384C272 375.163 264.837 368 256 368C247.163 368 240 375.163 240 384C240 392.837 247.163 400 256 400Z" fill="white"/>
<path d="M192 208C196.243 208 200.313 206.314 203.314 203.314C206.314 200.313 208 196.243 208 192C208 179.27 213.057 167.061 222.059 158.059C231.061 149.057 243.27 144 256 144C268.73 144 280.939 149.057 289.941 158.059C298.943 167.061 304 179.27 304 192C304 217.376 291.952 229.424 276.688 244.688C265.443 253.799 256.331 265.264 249.992 278.275C243.654 291.287 240.243 305.529 240 320C240 324.243 241.686 328.313 244.686 331.314C247.687 334.314 251.757 336 256 336C260.243 336 264.313 334.314 267.314 331.314C270.314 328.313 272 324.243 272 320C272 294.624 284.048 282.576 299.312 267.312C310.557 258.201 319.669 246.736 326.008 233.725C332.346 220.713 335.757 206.471 336 192C336 170.783 327.571 150.434 312.569 135.431C297.566 120.429 277.217 112 256 112C234.783 112 214.434 120.429 199.431 135.431C184.429 150.434 176 170.783 176 192C176 196.243 177.686 200.313 180.686 203.314C183.687 206.314 187.757 208 192 208Z" fill="white"/>
</svg>
