<svg id="Capa_1" enable-background="new 0 0 512 512" height="512" viewBox="0 0 512 512" width="512" xmlns="http://www.w3.org/2000/svg"><g><path d="m387.636 267.57c27.38-19.038 43.909-50.182 43.909-84.164 0-56.555-46.011-102.567-102.567-102.567-33.772 0-64.92 16.47-83.992 43.691 68.318 20.578 122.254 74.645 142.65 143.04z"/><path d="m213.87 117.672c23.611-41.314 67.332-66.807 115.109-66.807 73.083 0 132.541 59.458 132.541 132.541 0 48.054-25.577 91.71-67.114 115.278 1.351 9.671 2.066 19.543 2.066 29.58 0 9.054-.572 17.977-1.676 26.737 68.521-26.711 117.204-93.407 117.204-171.265 0-101.312-82.424-183.736-183.736-183.736-77.859 0-144.554 48.683-171.265 117.204 8.76-1.103 17.683-1.676 26.737-1.676 10.229 0 20.286.742 30.134 2.144z"/><path d="m29.974 118.183c0-30.703 24.978-55.681 55.681-55.681h1.496l-10.891 10.892 21.195 21.195 47.074-47.073-47.075-47.074-21.194 21.195 10.891 10.892h-1.496c-47.231-.001-85.655 38.424-85.655 85.654v34.269h29.974z"/><path d="m482.026 393.817c0 30.703-24.978 55.681-55.681 55.681h-1.496l10.891-10.892-21.195-21.195-47.074 47.073 47.074 47.073 21.195-21.195-10.891-10.891h1.496c47.23 0 85.655-38.424 85.655-85.655v-34.269h-29.974z"/><path d="m163.695 313.277h52.991c6.656 0 12.072-5.415 12.072-12.072s-5.416-12.073-12.072-12.073h-52.991z"/><path d="m216.686 343.251h-52.991v24.144h52.991c6.656 0 12.072-5.416 12.072-12.072s-5.416-12.072-12.072-12.072z"/><path d="m367.472 328.264c0-101.312-82.424-183.736-183.736-183.736s-183.736 82.424-183.736 183.736 82.424 183.736 183.736 183.736 183.736-82.424 183.736-183.736zm-147.822 68.989v24.068h-29.974v-23.951h-25.981v23.952h-29.975v-23.952h-24.98v-29.974h24.981v-78.263h-24.981v-29.974h24.981v-23.952h29.974v23.952h25.981v-23.952h29.974v24.068c21.805 1.528 39.082 19.743 39.082 41.93 0 10.3-3.728 19.741-9.898 27.059 6.17 7.319 9.898 16.76 9.898 27.059 0 22.187-17.277 40.403-39.082 41.93z"/></g></svg>